<svg xmlns="http://www.w3.org/2000/svg" viewBox="0 0 390 844" role="img" aria-hidden="true">
<defs>
  <linearGradient id="table" x1="0" y1="0" x2="0" y2="1"><stop stop-color="#8b5c3f"/><stop offset="1" stop-color="#38261e"/></linearGradient>
  <linearGradient id="paper" x1="0" y1="0" x2="1" y2="1"><stop stop-color="#fff0cb"/><stop offset="1" stop-color="#d8b57d"/></linearGradient>
  <linearGradient id="camera" x1="0" y1="0" x2="1" y2="1"><stop stop-color="#675446"/><stop offset="1" stop-color="#242933"/></linearGradient>
  <linearGradient id="lantern" x1="0" y1="0" x2="1" y2="1"><stop stop-color="#e0b25d"/><stop offset="1" stop-color="#5c3921"/></linearGradient>
  <radialGradient id="glow" cx=".5" cy=".5" r=".62"><stop stop-color="#fff7c9"/><stop offset=".38" stop-color="#ffc958" stop-opacity=".8"/><stop offset="1" stop-color="#ffbd4a" stop-opacity="0"/></radialGradient>
  <filter id="shadow" x="-60%" y="-60%" width="220%" height="220%"><feDropShadow dx="0" dy="8" stdDeviation="9" flood-color="#160d09" flood-opacity=".4"/></filter>
  <filter id="blur"><feGaussianBlur stdDeviation="11"/></filter>
</defs>
<g opacity=".92" filter="url(#shadow)">
  <path d="M0 621c23 19 34 43 40 75M0 665c28 4 48 21 64 49M20 602c18 20 27 40 29 61" fill="none" stroke="#2f5e3e" stroke-width="11" stroke-linecap="round"/>
  <ellipse cx="10" cy="628" rx="17" ry="35" fill="#55805a" transform="rotate(-28 10 628)"/><ellipse cx="34" cy="659" rx="15" ry="31" fill="#6d9763" transform="rotate(32 34 659)"/>
  <path d="M390 629c-25 16-41 39-51 69M390 677c-27 4-47 18-62 44" fill="none" stroke="#2d5a3a" stroke-width="11" stroke-linecap="round"/>
  <ellipse cx="377" cy="645" rx="16" ry="35" fill="#5c8a5c" transform="rotate(26 377 645)"/><ellipse cx="349" cy="680" rx="14" ry="29" fill="#759b69" transform="rotate(-35 349 680)"/>
</g>
<path d="M0 684c116-26 258-24 390 7v153H0z" fill="url(#table)"/>
<path d="M0 704c129-18 252-15 390 5" fill="none" stroke="#bc8154" stroke-width="6" opacity=".45"/>
<g transform="translate(74 620)" filter="url(#shadow)">
  <path d="M0 72c8-47 31-69 70-69h174c38 0 61 24 68 69" fill="#34251f" stroke="#1f1612" stroke-width="6"/>
  <path d="M18 69c12-31 31-46 58-46h162c25 0 43 15 55 46" fill="#74503b" stroke="#b17b52" stroke-width="5"/>
  <rect x="92" y="53" width="126" height="31" rx="8" fill="#b57a4b" opacity=".8"/>
</g>
<g transform="translate(96 714) rotate(-5 88 43)" filter="url(#shadow)">
  <path d="M0 12L61 0l59 13 57-11v85l-57 11-59-13-61 12z" fill="url(#paper)" stroke="#765238" stroke-width="3"/>
  <path d="M61 0v85M120 13v85" stroke="#b58a55" stroke-width="2"/>
  <path d="M18 55c34-29 68-27 101 3 17 16 31 11 43-5" fill="none" stroke="#4e7e70" stroke-width="4" stroke-dasharray="7 5"/>
  <circle cx="137" cy="38" r="8" fill="#c76052"/>
</g>
<g transform="translate(18 724)" filter="url(#shadow)">
  <rect x="0" y="18" width="77" height="56" rx="9" fill="url(#camera)" stroke="#1d2229" stroke-width="4"/>
  <path d="M17 18l8-14h24l8 14" fill="#675244" stroke="#27272b" stroke-width="3"/>
  <circle cx="42" cy="46" r="21" fill="#101820" stroke="#c2a36f" stroke-width="5"/><circle cx="42" cy="46" r="12" fill="#4f8fae"/><circle cx="35" cy="39" r="4" fill="#fff" opacity=".7"/>
</g>
<g transform="translate(312 705)" filter="url(#shadow)">
  <circle cx="32" cy="36" r="45" fill="url(#glow)" opacity=".34" filter="url(#blur)"/>
  <path d="M15 6h34M21 6c0-20 22-20 22 0" fill="none" stroke="#4e3323" stroke-width="5"/>
  <rect x="8" y="18" width="49" height="62" rx="10" fill="url(#lantern)" stroke="#4b2f20" stroke-width="4"/>
  <rect x="17" y="28" width="31" height="42" rx="8" fill="#ffd56d" opacity=".83"/>
  <circle cx="33" cy="49" r="12" fill="#fff3b2" opacity=".9"/>
</g>
<g transform="translate(248 745) rotate(8 42 35)" filter="url(#shadow)">
  <rect x="0" y="0" width="76" height="54" rx="8" fill="#1a3d65" stroke="#c18b51" stroke-width="3"/>
  <path d="M38 11l7 14 16 2-12 11 3 16-14-8-14 8 3-16-12-11 16-2z" fill="none" stroke="#e2b95d" stroke-width="3"/>
</g>
</svg>